<svg width="621" height="162" viewBox="0 0 621 162" fill="none" xmlns="http://www.w3.org/2000/svg"><g clip-path="url(#clip0)"><path d="M119.441 78.839a34.286 34.286 0 0 1-1.916 1.924 32.874 32.874 0 0 1-19.719 8.7V71.685a15.197 15.197 0 0 0 4.734-1.689c4.706-2.623 7.891-7.644 7.891-13.413 0-8.482-6.877-15.359-15.358-15.359-8.48 0-15.36 6.877-15.36 15.359 0 .092.013.183.013.273a35.776 35.776 0 0 0-16.109-10.273C67.853 33.245 80.332 23.58 95.073 23.58c18.225 0 33.002 14.777 33.002 33.005a32.89 32.89 0 0 1-8.634 22.254zm-24.368 59.104c-14.74 0-27.221-9.664-31.456-22.998a34.216 34.216 0 0 1-.713-2.635 33.148 33.148 0 0 1-.835-7.369 32.89 32.89 0 0 1 3.152-14.08c.388-.824.82-1.63 1.275-2.416l-.012-.01-2.343-1.354-.027-.013-10.92-6.307 10.92-6.305.024-.016 2.343-1.351.015-.009 15.272-8.817.014-.009 2.343-1.35.028-.018 10.92-6.303v48.358l-10.92-6.304-.028-.015-2.343-1.353a15.407 15.407 0 0 0-2.056 7.399c0 .093-.013.18-.013.273 0 8.484 6.88 15.359 15.36 15.359 8.481 0 15.358-6.875 15.358-15.359 0-5.769-3.185-10.79-7.889-13.413a35.668 35.668 0 0 0 16.898-8.84 32.884 32.884 0 0 1 8.635 22.253c0 18.228-14.774 33.002-33.002 33.002zm-34.81-24.944a33.193 33.193 0 0 1-7.07.764c-18.23 0-33.004-14.774-33.004-33.002 0-18.224 14.774-33 33.004-33 2.429 0 4.791.267 7.072.766a32.96 32.96 0 0 1 2.64.688c7.135 2.192 13.233 6.743 17.4 12.738L65.22 70.66l-.315.18a15.396 15.396 0 0 0-3.821-3.237 15.252 15.252 0 0 0-7.892-2.2c-8.483 0-15.36 6.874-15.36 15.357 0 8.484 6.877 15.362 15.36 15.362 2.89 0 5.584-.816 7.892-2.202a35.566 35.566 0 0 0-.821 19.08zM80.76.004C36.154.004 0 36.16 0 80.764c0 44.599 36.154 80.756 80.76 80.756 44.599 0 80.752-36.157 80.752-80.756 0-44.604-36.153-80.76-80.752-80.76z" fill="#F68712"/><path d="M187.879 49.577V15.208h19.142l-1.72 5.267h-11.112v8.917h11.112v5.27h-11.112v9.648h12.832v5.267h-19.142zm32.492.523c-4.382 0-6.102-2.452-6.102-5.79V29.604h-4.38v-4.697h4.38v-5.684l6.258-1.879v7.563h7.669l-1.828 4.697h-5.841v12.411c0 1.933.73 2.819 2.346 2.819 1.566 0 3.183-.73 4.123-1.36l1.668 3.967c-2.553 1.823-5.891 2.659-8.293 2.659m28.588-.523V35.182c0-2.764-.418-5.372-3.756-5.372-2.139 0-4.328 1.2-5.999 2.608v17.16h-6.259V12.65h6.259v14.918c2.295-1.877 5.008-3.236 8.191-3.236 3.806 0 7.874 1.827 7.874 9.077v16.167h-6.31zm11.63 0v-24.67h6.26v24.67h-6.26zm3.131-28.476c-2.139 0-3.859-1.669-3.859-3.808 0-2.033 1.72-3.756 3.859-3.756 2.191 0 3.912 1.671 3.912 3.756 0 2.086-1.721 3.808-3.912 3.808zM284.477 50.1c-8.032 0-12.15-5.79-12.15-12.727 0-7.508 5.422-13.04 12.778-13.04 3.339 0 5.634.835 7.042 1.722l-.106 5.114c-1.72-1.304-3.652-2.034-6.205-2.034-4.225 0-7.252 3.338-7.252 7.926 0 4.225 2.296 7.979 7.197 7.979 2.35 0 4.122-.73 5.843-1.722l1.564 4.123c-1.981 1.355-5.32 2.659-8.711 2.659m25.766-11.84l-3.544.105c-3.391.104-4.906 1.252-4.906 3.338 0 2.033 1.411 3.442 4.019 3.442 2.191 0 3.597-.835 4.431-1.565v-5.32zm1.566 11.317l-1.042-2.19c-1.616 1.46-3.862 2.713-7.146 2.713-4.537 0-8.085-3.076-8.085-7.929 0-5.11 4.017-7.874 10.327-8.082l4.38-.156v-.629c0-2.97-2.084-4.169-4.692-4.169-2.712 0-4.799.886-6.364 1.824l-2.035-3.912c3.288-2.191 6.365-2.714 9.649-2.714 6.106 0 9.807 2.506 9.807 8.971v9.753c0 3.548.104 5.372.469 6.52h-5.268m16.327.523c-4.121 0-5.684-2.347-5.684-5.423V12.651h6.256v29.262c0 1.823.365 2.553 1.668 2.553.419 0 .941-.05 1.828-.261l.78 4.642c-1.824.992-3.441 1.253-4.848 1.253zM209.837 69.157h-9.39v29.101h-6.362V69.157h-9.962V63.89h27.226l-1.512 5.267zm14.859 10.221c-1.043-.624-2.139-.78-2.92-.78-1.46 0-3.076.679-4.747 2.19v17.47h-6.258v-24.67h5.268l.677 2.609c2.557-2.242 4.487-3.182 6.833-3.182 1.2 0 2.504.367 3.443 1.045l-2.296 5.318m18.675 7.562l-3.543.106c-3.391.105-4.904 1.253-4.904 3.338 0 2.034 1.408 3.443 4.016 3.443 2.192 0 3.599-.836 4.431-1.565V86.94zm1.568 11.318l-1.044-2.19c-1.616 1.46-3.862 2.713-7.144 2.713-4.539 0-8.084-3.076-8.084-7.928 0-5.112 4.016-7.875 10.326-8.084l4.378-.156v-.627c0-2.97-2.083-4.17-4.691-4.17-2.713 0-4.799.886-6.364 1.824l-2.035-3.913c3.287-2.189 6.364-2.712 9.65-2.712 6.105 0 9.805 2.505 9.805 8.97v9.755c0 3.547.105 5.371.471 6.518h-5.268m25.296-19.922c-.835-.208-1.563-.363-2.922-.363-4.433 0-7.614 2.97-7.614 7.82 0 4.486 2.92 7.823 7.718 7.823.992 0 2.088-.156 2.818-.362V78.336zm-3.391 20.445c-7.355 0-13.403-4.329-13.403-12.673 0-7.667 5.686-13.093 13.664-13.093 1.252 0 2.243.054 3.13.21V61.333h6.26V96.8c-2.348 1.203-5.427 1.982-9.651 1.982m15.023-.524v-24.67h6.258v24.67h-6.258zm3.129-28.477c-2.137 0-3.86-1.667-3.86-3.806 0-2.034 1.723-3.755 3.86-3.755 2.192 0 3.912 1.67 3.912 3.755s-1.72 3.806-3.912 3.806zm25.871 28.477V83.76c0-2.555-.471-5.374-3.651-5.374-2.192 0-4.328 1.148-6.26 2.609v17.263h-6.26v-24.67h5.32l.68 2.663c2.659-1.983 5.319-3.236 8.656-3.236 3.755 0 7.773 2.245 7.773 8.87v16.373h-6.258m21.436-20.547c-2.294 0-4.122 1.51-4.122 4.33 0 2.608 1.616 4.798 4.38 4.798 2.454 0 4.383-1.515 4.383-4.54 0-2.292-1.72-4.588-4.641-4.588zm-4.328 21.332c-.835.573-2.088 1.512-2.088 3.233 0 2.085 2.606 3.861 6.884 3.861 3.598 0 6.261-1.148 6.261-3.081 0-3.178-8.293-2.865-11.057-4.013zm4.274 11.525c-7.405 0-11.734-3.338-11.734-7.301 0-2.817 2.033-4.798 4.538-5.894-1.201-.625-1.67-1.98-1.67-3.077 0-1.512 1.044-3.286 3.132-4.591-2.663-1.356-4.279-4.431-4.279-7.563 0-4.692 3.547-9.23 10.223-9.23 1.981 0 3.598.47 4.693 1.094.313.156.471.054.625-.156 1.462-1.355 3.652-2.347 7.772-1.928l-1.301 4.641c-1.304-.26-2.504-.417-3.495 0 1.459 1.565 2.346 3.388 2.346 6.206 0 5.373-4.591 8.868-10.119 8.868-1.304 0-2.293-.106-3.339-.469-.417.676-.625 1.2-.625 1.98 0 3.705 16.848.212 16.848 9.232 0 4.276-4.331 8.188-13.615 8.188M188.923 146.94v-34.368h6.31v34.368h-6.31zm27.852 0v-14.5c0-2.553-.468-5.371-3.652-5.371-2.188 0-4.33 1.147-6.258 2.607v17.264h-6.257v-24.671h5.316l.681 2.664c2.658-1.983 5.318-3.238 8.656-3.238 3.756 0 7.772 2.246 7.772 8.87v16.375h-6.258m11.63 0v-24.671h6.258v24.671h-6.258zm3.13-28.476c-2.139 0-3.86-1.667-3.86-3.808 0-2.033 1.721-3.755 3.86-3.755 2.19 0 3.913 1.671 3.913 3.755 0 2.086-1.723 3.808-3.913 3.808zm18.046 28.999c-4.381 0-6.102-2.451-6.102-5.788v-14.709h-4.382v-4.697h4.382v-5.683l6.257-1.879v7.562h7.668l-1.825 4.697h-5.843v12.411c0 1.934.731 2.82 2.348 2.82 1.564 0 3.181-.732 4.121-1.36l1.668 3.968c-2.553 1.823-5.892 2.658-8.292 2.658zm11.423-.523v-24.671h6.257v24.671h-6.257zm3.131-28.476c-2.139 0-3.862-1.667-3.862-3.808 0-2.033 1.723-3.755 3.862-3.755 2.19 0 3.912 1.671 3.912 3.755 0 2.086-1.722 3.808-3.912 3.808zm22.218 17.159l-3.548.104c-3.389.105-4.901 1.254-4.901 3.338 0 2.034 1.407 3.445 4.015 3.445 2.19 0 3.6-.835 4.434-1.567v-5.32zm1.564 11.317l-1.044-2.189c-1.617 1.46-3.858 2.712-7.145 2.712-4.536 0-8.083-3.076-8.083-7.928 0-5.111 4.015-7.876 10.328-8.083l4.38-.156v-.629c0-2.97-2.088-4.169-4.696-4.169-2.71 0-4.796.887-6.361 1.824l-2.036-3.913c3.285-2.19 6.364-2.714 9.651-2.714 6.101 0 9.805 2.507 9.805 8.972v9.753c0 3.549.103 5.372.469 6.52h-5.268m18.987.523c-4.381 0-6.104-2.451-6.104-5.788v-14.709h-4.379v-4.697h4.379v-5.683l6.261-1.879v7.562h7.666l-1.824 4.697h-5.842v12.411c0 1.934.731 2.82 2.346 2.82 1.565 0 3.182-.732 4.12-1.36l1.67 3.968c-2.557 1.823-5.894 2.658-8.293 2.658m12.465-.523v-24.671h6.26v24.671h-6.26zm3.128-28.476c-2.136 0-3.856-1.667-3.856-3.808 0-2.033 1.72-3.755 3.856-3.755 2.192 0 3.912 1.671 3.912 3.755 0 2.086-1.72 3.808-3.912 3.808zm21.647 28.631h-4.539l-10.117-24.826h6.416l6.153 16.796h.104l6.26-16.796h6.05l-10.327 24.826m22.579-20.703c-3.024 0-4.852 2.71-4.852 5.423h9.597c-.103-2.659-1.564-5.423-4.745-5.423zm-4.695 9.859c.105 3.65 3.129 6.204 6.939 6.204 2.344 0 4.274-.571 6.413-1.719l1.512 4.015c-2.763 1.93-6.049 2.712-8.971 2.712-8.606 0-12.256-6.258-12.256-12.883 0-7.039 4.172-12.885 11.214-12.885 6.674 0 11.058 5.062 11.058 12.729v1.827h-15.909" fill="#890C29"/><path d="M405.405.004V161.52h-1.302V.004h1.302z" fill="#F68712"/><path d="M439.217 61.062h-5.145v4.526h5.099v2.144h-5.099v6.885h-2.501V58.918h8.409l-.763 2.144zm3.975 7.91c0 2.334 1.119 3.906 2.953 3.906 1.907 0 2.931-1.62 2.931-3.906 0-2.36-1.096-3.908-2.977-3.908-1.906 0-2.907 1.597-2.907 3.908zm6.885-4.312c1 1.024 1.548 2.549 1.548 4.287 0 1.764-.572 3.311-1.596 4.36-.977.977-2.312 1.548-3.908 1.548-1.546 0-2.834-.476-3.764-1.381-1.096-1.05-1.69-2.644-1.69-4.456 0-1.786.594-3.334 1.62-4.382.953-1 2.288-1.573 3.834-1.573 1.644 0 3.003.572 3.956 1.597m9.814 1.024a2.737 2.737 0 0 0-1.262-.31c-.668 0-1.525.429-2.262 1.12v8.123h-2.48V63.35h2.073l.309 1.24c1.264-1.169 2.146-1.526 3.147-1.526.523 0 1.071.191 1.428.429l-.953 2.192m19.338 9.003h-1.953l-2.621-8.147h-.071l-2.621 8.147h-1.954l-3.977-11.34h2.524l2.527 8.053h.07l2.574-8.052h1.976l2.62 8.076h.048l2.501-8.076h2.383l-4.026 11.34m7.19-5.717c0 2.334 1.12 3.906 2.953 3.906 1.907 0 2.932-1.62 2.932-3.906 0-2.36-1.097-3.908-2.979-3.908-1.905 0-2.906 1.597-2.906 3.908zm6.885-4.312c1 1.024 1.548 2.549 1.548 4.287 0 1.764-.572 3.311-1.596 4.36-.977.977-2.311 1.548-3.907 1.548-1.548 0-2.834-.476-3.764-1.381-1.096-1.05-1.692-2.644-1.692-4.456 0-1.786.596-3.334 1.622-4.382.952-1 2.286-1.573 3.834-1.573 1.643 0 3.002.572 3.955 1.597zm9.813 1.024a2.73 2.73 0 0 0-1.261-.31c-.668 0-1.525.429-2.264 1.12v8.123h-2.477V63.35h2.073l.309 1.24c1.262-1.169 2.144-1.526 3.146-1.526.522 0 1.07.191 1.428.429l-.954 2.192m9.028 8.932l-4.288-5.455h-.024v5.455h-2.476V57.751h2.476v9.481h.024l3.787-3.883h2.98l-4.743 4.764 5.243 6.504h-2.979zm8.287-9.624c-1.477 0-2.359 1.333-2.359 2.739h4.694c-.023-1.31-.763-2.74-2.335-2.74zm-2.335 4.574c.026 1.858 1.359 3.24 3.383 3.24 1 0 1.953-.286 2.835-.786l.644 1.62c-1.119.81-2.622 1.214-3.931 1.214-3.787 0-5.48-2.882-5.48-5.955 0-3.216 1.881-5.837 4.931-5.837 3.002 0 4.861 2.312 4.861 5.812v.692h-7.243m15.534-3.883a2.744 2.744 0 0 0-1.264-.31c-.667 0-1.524.429-2.264 1.12v8.123h-2.476V63.35h2.073l.309 1.24c1.262-1.169 2.143-1.526 3.143-1.526.525 0 1.073.191 1.431.429l-.952 2.192m4.83 9.17c-1.786 0-3.001-.428-3.906-1l.833-1.834c.739.5 1.788.929 2.955.929 1.24 0 2.073-.5 2.073-1.358 0-2.264-5.169-1.406-5.169-5.313 0-1.834 1.428-3.216 4.072-3.216 1.358 0 2.31.262 3.145.595v2.097c-.881-.38-1.835-.714-3.049-.714-1.024 0-1.764.334-1.764 1.119 0 2.025 5.266 1.43 5.266 5.241 0 2.478-2.097 3.454-4.456 3.454m7.908-11.482l-1.429-.667c.833-1.692.905-2.954.668-4.717l2.381-.452c.406 2.072-.094 4.145-1.62 5.836m11.787 2.311a2.729 2.729 0 0 0-1.263-.31c-.666 0-1.524.429-2.262 1.12v8.123h-2.478V63.35h2.072l.31 1.24c1.264-1.169 2.145-1.526 3.145-1.526a2.74 2.74 0 0 1 1.429.429l-.953 2.192m2.311 8.932V63.35h2.477v11.268h-2.477zm2.81-14.77c0 .833-.69 1.548-1.573 1.548-.904 0-1.596-.69-1.596-1.549 0-.857.692-1.547 1.596-1.547.883 0 1.573.666 1.573 1.547zm4.931 7.362c0 1.31.833 2.334 2.168 2.334 1.264 0 2.192-.786 2.192-2.263 0-1.239-.859-2.287-2.263-2.287-1.192 0-2.097.81-2.097 2.216zm.191 7.646c-.452.31-1.144.786-1.144 1.668 0 1.024 1.264 1.906 3.288 1.906 1.834 0 3.097-.62 3.097-1.643 0-1.645-3.884-1.453-5.241-1.931zm1.929 5.408c-3.383 0-5.311-1.548-5.311-3.36 0-1.262.904-2.191 2.071-2.715-.547-.309-.761-.905-.761-1.43 0-.643.428-1.453 1.381-2.096-1.216-.643-1.905-2-1.905-3.453 0-2.193 1.69-4.17 4.478-4.17.906 0 1.596.167 2.12.453.12.071.19.047.287-.024.619-.595 1.689-1.072 3.405-.858l-.57 1.93c-.596-.143-1.146-.19-1.598 0 .692.739 1.146 1.644 1.146 2.883 0 2.454-2.003 4.073-4.575 4.073-.573 0-1.024-.047-1.477-.215-.263.334-.406.62-.406 1.05 0 1.667 7.743.023 7.743 4.192 0 1.93-1.859 3.74-6.028 3.74m14.793-5.646V67.9c0-1.31-.238-2.62-1.81-2.62-1.119 0-2.167.715-2.979 1.406v7.932h-2.476V57.751h2.476v6.861c1.121-.882 2.288-1.549 3.812-1.549 1.668 0 3.455.906 3.455 4.145v7.41h-2.478zm8.838.238c-1.859 0-2.644-1.071-2.644-2.549V65.28h-1.952v-1.93h1.952V60.8l2.477-.762v3.31h3.503l-.787 1.93h-2.716v6.147c0 .881.357 1.31 1.096 1.31.739 0 1.453-.38 1.907-.691l.689 1.62c-1.071.787-2.452 1.19-3.525 1.19m8.17.001c-1.786 0-3-.428-3.906-1l.834-1.834c.739.5 1.787.929 2.954.929 1.24 0 2.073-.5 2.073-1.358 0-2.264-5.169-1.406-5.169-5.313 0-1.834 1.428-3.216 4.072-3.216 1.36 0 2.312.262 3.145.595v2.097c-.881-.38-1.835-.714-3.049-.714-1.024 0-1.763.334-1.763 1.119 0 2.025 5.265 1.43 5.265 5.241 0 2.478-2.097 3.454-4.456 3.454m7.862.072c-.858 0-1.524-.691-1.524-1.597 0-.88.666-1.572 1.524-1.572.881 0 1.548.692 1.548 1.572 0 .906-.667 1.597-1.548 1.597zM439.296 90.123h-5.147v4.526h5.099v2.143h-5.099v6.885h-2.502V87.978h8.41l-.761 2.145zm3.972 7.908c0 2.335 1.121 3.907 2.955 3.907 1.906 0 2.93-1.619 2.93-3.907 0-2.357-1.096-3.907-2.977-3.907-1.907 0-2.908 1.597-2.908 3.907zm6.885-4.31c1 1.024 1.55 2.548 1.55 4.287 0 1.763-.572 3.311-1.596 4.359-.978.977-2.311 1.549-3.907 1.549-1.549 0-2.835-.477-3.765-1.382-1.095-1.048-1.691-2.644-1.691-4.454 0-1.788.596-3.335 1.621-4.385.951-1 2.286-1.57 3.835-1.57 1.643 0 3 .57 3.953 1.596m9.816 1.024a2.74 2.74 0 0 0-1.264-.31c-.668 0-1.524.428-2.262 1.119v8.123h-2.478V92.409h2.072l.311 1.24c1.261-1.169 2.143-1.525 3.144-1.525.524 0 1.072.19 1.429.428l-.952 2.193m11.738-.453c-.882 0-1.404.213-1.835.403v6.934c.431.167.905.215 1.525.215 2.024 0 3.526-1.763 3.526-4.027 0-1.954-1.191-3.525-3.216-3.525zm-.81 9.624c-1.525 0-2.74-.333-3.502-.762V86.812h2.477v5.717a6.879 6.879 0 0 1 2.288-.405c2.739 0 5.241 1.81 5.241 5.503 0 3.954-2.954 6.289-6.504 6.289m13.126-9.862c-1.478 0-2.359 1.333-2.359 2.738h4.695c-.026-1.31-.764-2.738-2.336-2.738zm-2.335 4.574c.024 1.857 1.359 3.238 3.384 3.238 1 0 1.953-.285 2.835-.785l.642 1.62c-1.12.81-2.621 1.215-3.93 1.215-3.788 0-5.479-2.882-5.479-5.956 0-3.215 1.883-5.836 4.931-5.836 3.001 0 4.858 2.311 4.858 5.812v.692h-7.241m13.103 5.288c-1.859 0-2.646-1.072-2.646-2.55v-7.027h-1.952v-1.93h1.952v-2.548l2.479-.762v3.31h3.501l-.786 1.93h-2.715v6.146c0 .881.356 1.311 1.096 1.311.739 0 1.453-.382 1.905-.692l.691 1.62c-1.071.787-2.453 1.192-3.525 1.192m8.812 0c-1.856 0-2.643-1.072-2.643-2.55v-7.027h-1.953v-1.93h1.953v-2.548l2.476-.762v3.31h3.503l-.787 1.93h-2.716v6.146c0 .881.359 1.311 1.097 1.311s1.452-.382 1.906-.692l.69 1.62c-1.072.787-2.454 1.192-3.526 1.192m9.577-9.862c-1.479 0-2.359 1.333-2.359 2.738h4.694c-.024-1.31-.763-2.738-2.335-2.738zm-2.335 4.574c.024 1.857 1.358 3.238 3.383 3.238 1.001 0 1.953-.285 2.835-.785l.642 1.62c-1.117.81-2.618 1.215-3.929 1.215-3.788 0-5.48-2.882-5.48-5.956 0-3.215 1.883-5.836 4.931-5.836 3.002 0 4.861 2.311 4.861 5.812v.692h-7.243m15.532-3.883a2.733 2.733 0 0 0-1.262-.31c-.668 0-1.526.428-2.263 1.119v8.123h-2.479V92.409h2.074l.309 1.24c1.263-1.169 2.144-1.525 3.144-1.525.524 0 1.073.19 1.429.428l-.952 2.193m11.739-.453c-.881 0-1.405.213-1.835.403v6.934c.43.167.906.215 1.526.215 2.025 0 3.525-1.763 3.525-4.027 0-1.954-1.191-3.525-3.216-3.525zm-.809 9.624c-1.526 0-2.74-.333-3.502-.762V86.812h2.476v5.717a6.873 6.873 0 0 1 2.287-.405c2.74 0 5.243 1.81 5.243 5.503 0 3.954-2.955 6.289-6.504 6.289m16.46-.239l-.454-1.118c-.808.69-2.048 1.357-3.525 1.357-1.5 0-3.692-.762-3.692-4.24V92.41h2.477v7.1c0 1.572.715 2.382 2.098 2.382 1.072 0 1.953-.62 2.453-1.12V92.41h2.477v7.601c0 2.357.047 3.144.214 3.667h-2.048m7.741.238c-1.787 0-3.001-.429-3.907-1l.834-1.835c.738.5 1.786.929 2.953.929 1.24 0 2.075-.5 2.075-1.358 0-2.264-5.171-1.406-5.171-5.312 0-1.835 1.429-3.216 4.075-3.216 1.356 0 2.31.262 3.144.595v2.098c-.882-.382-1.835-.715-3.05-.715-1.025 0-1.762.333-1.762 1.118 0 2.025 5.264 1.43 5.264 5.243 0 2.476-2.096 3.453-4.455 3.453m6.98-.239V92.409h2.479v11.268h-2.479zm2.811-14.77c0 .834-.691 1.549-1.572 1.549-.906 0-1.596-.69-1.596-1.549 0-.857.69-1.547 1.596-1.547.881 0 1.572.666 1.572 1.547zm10.148 14.77v-6.742c0-1.215-.239-2.596-1.762-2.596-1.12 0-2.192.666-3.074 1.358v7.98h-2.476V92.409h2.072l.285 1.263c1.263-.953 2.455-1.548 4.001-1.548 1.668 0 3.431 1.097 3.431 4.025v7.528h-2.477zm9.577-9.623c-1.477 0-2.359 1.333-2.359 2.738h4.695c-.025-1.31-.764-2.738-2.336-2.738zm-2.335 4.574c.024 1.857 1.358 3.238 3.383 3.238 1.001 0 1.953-.285 2.835-.785l.642 1.62c-1.118.81-2.62 1.215-3.929 1.215-3.789 0-5.48-2.882-5.48-5.956 0-3.215 1.883-5.836 4.932-5.836 3.001 0 4.859 2.311 4.859 5.812v.692h-7.242m12.458 5.288c-1.786 0-3.002-.429-3.907-1l.835-1.835c.737.5 1.786.929 2.953.929 1.239 0 2.072-.5 2.072-1.358 0-2.264-5.169-1.406-5.169-5.312 0-1.835 1.43-3.216 4.074-3.216 1.358 0 2.311.262 3.143.595v2.098c-.881-.382-1.833-.715-3.049-.715-1.023 0-1.762.333-1.762 1.118 0 2.025 5.264 1.43 5.264 5.243 0 2.476-2.096 3.453-4.454 3.453m9.601 0c-1.787 0-3.001-.429-3.907-1l.834-1.835c.738.5 1.786.929 2.953.929 1.239 0 2.073-.5 2.073-1.358 0-2.264-5.169-1.406-5.169-5.312 0-1.835 1.429-3.216 4.073-3.216 1.358 0 2.312.262 3.146.595v2.098c-.883-.382-1.835-.715-3.051-.715-1.024 0-1.763.333-1.763 1.118 0 2.025 5.264 1.43 5.264 5.243 0 2.476-2.096 3.453-4.453 3.453m7.86.071c-.857 0-1.524-.69-1.524-1.596 0-.881.667-1.572 1.524-1.572.881 0 1.548.691 1.548 1.572 0 .906-.667 1.596-1.548 1.596z" fill="#890C29"/></g><defs><clipPath id="clip0"><path fill="#fff" d="M0 0h620.16v161.52H0z"/></clipPath></defs></svg>